<?xml version="1.0" encoding="UTF-8"?>
<svg xmlns="http://www.w3.org/2000/svg" viewBox="0 0 24 24" fill="none" stroke="currentColor" stroke-width="1.8" stroke-linecap="round" stroke-linejoin="round">

    <path fill="none" stroke="currentColor" stroke-width="1.8" stroke-linecap="round" stroke-linejoin="round" d="M14.5 4.5 19.5 9.5" />
    <path fill="none" stroke="currentColor" stroke-width="1.8" stroke-linecap="round" stroke-linejoin="round" d="M6.5 17.5c.9-.9 2.2-1.3 3.7-1.1 1.2.2 2.1-.1 2.8-.9l4.3-4.3-4.1-4.1-4.3 4.3c-.8.8-1.1 1.7-.9 2.8.2 1.5-.2 2.8-1.1 3.7-.6.6-1.4.9-2.4.9-.3 0-.6 0-.9-.1.1-.3.1-.6.1-.9 0-1 .3-1.8.9-2.4Z" />
    <path fill="none" stroke="currentColor" stroke-width="1.8" stroke-linecap="round" stroke-linejoin="round" d="M14.8 9.2 15.8 10.2" />
  
</svg>
